<svg class="as-svgicon-rtl-mirrored as-svgicon as-svgicon-boxtruck as-svgicon-tiny as-svgicon-boxtrucktiny" viewBox="0 0 21 21" role="img" aria-hidden="true" width="21px" height="21px"><path fill="none" d="M0 0h21v21H0z"></path><path fill="#1d1d1f" d="M19.559 10.274 17.24 7.53A1.69 1.69 0 0 0 15.918 7H15v-.75A2.25 2.25 0 0 0 12.75 4h-8.5A2.25 2.25 0 0 0 2 6.25V13a2.25 2.25 0 0 0 2.25 2.25h.56A2.25 2.25 0 0 0 7 17a2.2 2.2 0 0 0 2.19-2H14a2.214 2.214 0 0 0 2.25 2 2.25 2.25 0 0 0 2.19-1.75h.016A1.4 1.4 0 0 0 20 13.747v-2.363a1.6 1.6 0 0 0-.441-1.11M8.142 15.25a1.245 1.245 0 0 1-2.284 0 1.21 1.21 0 0 1 0-1 1.245 1.245 0 0 1 2.284 0 1.21 1.21 0 0 1 0 1M9.15 14a2.267 2.267 0 0 0-4.34.25h-.56A1.25 1.25 0 0 1 3 13V6.25A1.25 1.25 0 0 1 4.25 5h8.5A1.25 1.25 0 0 1 14 6.25V14Zm8.242 1.25a1.245 1.245 0 0 1-2.284 0 1.21 1.21 0 0 1 0-1 1.245 1.245 0 0 1 2.284 0 1.21 1.21 0 0 1 0 1M19 13.747c0 .334-.084.503-.544.503h-.016A2.246 2.246 0 0 0 15 12.88V8h.918a.68.68 0 0 1 .592.211l2.324 2.752a.62.62 0 0 1 .166.42Z"></path></svg>