<svg xmlns="http://www.w3.org/2000/svg" width="11" height="16" viewBox="0 0 11 16">
    <g>
        <rect width="11" height="16" fill="none"></rect>
        <path d="M10.4872,6.9633l-.568-.2173-.0111-.0013a4.3821,4.3821,0,0,0-.1128-.5609c.0062-.0047.014-.005.02-.01l.4562-.4015a.2868.2868,0,0,0-.1849-.5019l-.6078-.01c-.0075,0-.0131.0043-.02.0048-.0433-.0865-.0713-.1779-.12-.2622s-.1132-.1515-.1663-.2306c.0039-.006.0105-.0086.014-.015l.2911-.5337a.2867.2867,0,0,0-.3454-.4082l-.5743.1988c-.007.0024-.0107.0085-.0174.0114A4.3835,4.3835,0,0,0,8.1068,3.65l.0034-.008.091-.6013a.2867.2867,0,0,0-.4644-.2653l-.4713.3834c-.0052.0043-.0065.0106-.0113.0152a4.465,4.465,0,0,0-.5359-.1989c-.0008-.0048.0016-.0089.0006-.0137l-.12-.5964a.2867.2867,0,0,0-.5272-.09L5.76,2.7958l-.002.0065a4.395,4.395,0,0,0-.57.0206c-.0041-.0083-.0029-.0174-.0079-.0256l-.3164-.5195a.2867.2867,0,0,0-.5264.0952l-.1143.597c-.0016.0085.0023.0158.0014.0243a4.4074,4.4074,0,0,0-.524.2041c-.0085-.0088-.0116-.02-.0215-.0282l-.4746-.38a.2867.2867,0,0,0-.4623.2694l.0967.6a.2732.2732,0,0,0,.0149.0346,4.4091,4.4091,0,0,0-.4318.3565c-.01-.0044-.0152-.013-.0255-.0164L1.8206,3.84a.2867.2867,0,0,0-.3425.411l.296.5314c.0064.0114.0175.0166.025.0266a4.3975,4.3975,0,0,0-.2948.4815c-.0063,0-.0111-.0041-.0176-.004L.8793,5.3A.2866.2866,0,0,0,.698,5.803l.46.3985c.0079.0069.018.0075.0264.0133a4.4744,4.4744,0,0,0-.09.5552.2507.2507,0,0,0-.0344.0043l-.5659.221A.2867.2867,0,0,0,.4958,7.53l.5681.2173c.0086.0033.017.0006.0257.0031a4.368,4.368,0,0,0,.1136.5512c-.0114.0075-.0247.0088-.0354.0182l-.4561.4016a.2867.2867,0,0,0,.1848.5018l.6079.01a.2682.2682,0,0,0,.0389-.0091c.0418.0832.0686.1713.1159.2525.0482.0828.1129.151.1658.23-.0083.0111-.0206.017-.0275.03l-.2912.5337a.2867.2867,0,0,0,.3455.4082l.5743-.1988c.0138-.0048.0219-.016.0344-.0225a4.3568,4.3568,0,0,0,.4233.3693c-.0024.0094-.0093.016-.0109.0259l-.091.6013a.2867.2867,0,0,0,.4644.2654l.4713-.3835c.01-.0084.0136-.0207.0225-.03a4.45,4.45,0,0,0,.5256.195.2518.2518,0,0,0-.0016.0325l.12.5964a.2867.2867,0,0,0,.5272.0905l.3115-.5217c.0057-.0095.0045-.02.009-.03.0914.0057.1828.0177.2741.0177.0965,0,.192-.0126.288-.019.0046.01.0035.02.0092.03l.3163.5194a.2867.2867,0,0,0,.5265-.0952l.1142-.597a.2341.2341,0,0,0-.0015-.0265,4.424,4.424,0,0,0,.53-.1946c.0066.0064.0086.0151.016.021l.4746.38a.2867.2867,0,0,0,.4622-.2694l-.0967-.6a.2567.2567,0,0,0-.0162-.0376,4.4561,4.4561,0,0,0,.4338-.3532c.0093.0043.0148.0127.0249.0161l.5756.195a.2867.2867,0,0,0,.3424-.4111l-.296-.5314c-.0055-.01-.0154-.0141-.0217-.023a4.36,4.36,0,0,0,.2978-.4836c.0041,0,.0072.0027.0114.0026l.6074-.0138a.2867.2867,0,0,0,.1813-.5033l-.46-.3985c-.0046-.0039-.0105-.004-.0152-.0076a4.4757,4.4757,0,0,0,.0909-.5624c.0073-.0023.0146,0,.022-.0028l.566-.2209A.2867.2867,0,0,0,10.4872,6.9633ZM6.438,3.6748A3.6514,3.6514,0,0,1,9.1585,6.888l-2.5066.0106a1.1812,1.1812,0,0,0-.0928-.2736l0-.001a1.2222,1.2222,0,0,0-1.3571-.5568L3.9423,3.9053a3.6474,3.6474,0,0,1,1.55-.3535A3.7261,3.7261,0,0,1,6.438,3.6748ZM5.03,7.5166a.5352.5352,0,0,1,.1924-.7314.5275.5275,0,0,1,.269-.0733.5349.5349,0,1,1-.4614.8047ZM2.3135,9.0957A3.6511,3.6511,0,0,1,3.3551,4.2622L4.6078,6.4129a1.1912,1.1912,0,0,0-.001,1.6892L3.38,10.246A3.6685,3.6685,0,0,1,2.3135,9.0957Zm2.2456,1.709a3.7107,3.7107,0,0,1-.5833-.2164L5.2025,8.4439a1.2181,1.2181,0,0,0,1.4711-.8578l2.4871-.0106A3.7131,3.7131,0,0,1,9.063,8.18a3.6868,3.6868,0,0,1-4.5039,2.625Z" 
        fill="6E6E73">
        </path>
    </g>
</svg>
