<svg id="Outlined" xmlns="http://www.w3.org/2000/svg" width="11" height="16" viewBox="0 0 11 16">
    <g>
        <rect id="box_" width="11" height="16" fill="none"></rect>
        <path d="M7.0991,2.4238H3.9009a1.5916,1.5916,0,0,0-1.59,1.59v7.8076a.5906.5906,0,0,0,.13.4014.4553.4553,0,0,0,.3618.1533.5028.5028,0,0,0,.2989-.1006,3.2911,3.2911,0,0,0,.372-.33L5.499,9.94l2.0279,2.0058a4.1346,4.1346,0,0,0,.3681.3272.495.495,0,0,0,.3023.1035.4558.4558,0,0,0,.3613-.1524.5923.5923,0,0,0,.13-.4023V4.0137A1.5916,1.5916,0,0,0,7.0991,2.4238ZM3.1265,3.9287a.7755.7755,0,0,1,.7744-.7754H7.0991a.7755.7755,0,0,1,.7744.7754l0,7.1279L6.0718,9.2734a.8155.8155,0,0,0-1.1441,0L3.1265,11.0576Z"
        fill="6E6E73">
        </path>
    </g>
</svg>
