<svg xmlns="http://www.w3.org/2000/svg" width="11" height="16" viewBox="0 0 11 16">
    <g>
        <rect width="11" height="16" fill="none"></rect>
        <path d="M5.5,2.9019a4.7308,4.7308,0,1,0,4.7308,4.7308A4.7309,4.7309,0,0,0,5.5,2.9019Zm2.88,7.2608A3.8983,3.8983,0,0,0,5.5,9.165a3.8983,3.8983,0,0,0-2.88.9977,3.8435,3.8435,0,1,1,6.7306-2.53A3.8184,3.8184,0,0,1,8.38,10.1627ZM7.1051,6.71A1.649,1.649,0,0,1,5.5,8.4,1.649,1.649,0,0,1,3.8949,6.71,1.6489,1.6489,0,0,1,5.5,5.0206,1.6489,1.6489,0,0,1,7.1051,6.71Z" 
        fill="6E6E73">
        </path>
    </g>
</svg>
