<svg xmlns="http://www.w3.org/2000/svg" width="11" height="16" viewBox="0 0 11 16">
    <g>
        <rect width="11" height="16" fill="none"></rect>
        <path d="M9.4128,4.2466,6.2484,2.4615a1.5,1.5,0,0,0-1.474,0L1.61,4.2466a1.5,1.5,0,0,0-.763,1.3065v3.51A1.5,1.5,0,0,0,1.61,10.37l3.1645,1.7851a1.5,1.5,0,0,0,1.474,0L9.4128,10.37a1.5,1.5,0,0,0,.763-1.3065v-3.51A1.5,1.5,0,0,0,9.4128,4.2466ZM5.2043,3.2237a.6252.6252,0,0,1,.6141,0L8.8787,4.95l-1.18.6736L4.2966,3.7358Zm.3069,3.6491L2.1441,4.95l1.2576-.7094L6.81,6.1314ZM2.04,9.6078a.626.626,0,0,1-.3179-.5443V5.7163L5.0737,7.6308v3.6885Zm6.9431,0L5.9487,11.3194V7.6308L9.3008,5.7165v3.347A.6258.6258,0,0,1,8.9829,9.6078Z" 
        fill="6E6E73"></path>
    </g>
</svg>
